<svg width="271" height="75" viewBox="0 0 271 75" fill="none" xmlns="http://www.w3.org/2000/svg">
<path d="M27 61.3C27.8 58.5 28.5333 55.7333 29.2 53C29.9333 50.2667 30.6333 47.3667 31.3 44.3C32.0333 41.1667 32.8 37.7667 33.6 34.1C34.4667 30.3667 35.4667 26.1333 36.6 21.4C36.8 20.4667 37.1 19.8667 37.5 19.6C37.9 19.2667 38.7667 19.1 40.1 19.1C41.1 19.1 42.4333 19.1333 44.1 19.2C45.7667 19.2667 47.4 19.5 49 19.9C50.6 20.3 51.9667 20.9 53.1 21.7C54.3 22.5 54.9 23.6 54.9 25C54.9 26.1333 54.5 27.9667 53.7 30.5C52.9 33.0333 51.8667 35.9333 50.6 39.2C49.3333 42.4 47.9 45.7667 46.3 49.3C44.7667 52.8333 43.2667 56.1667 41.8 59.3C40.3333 62.4333 38.9667 65.2 37.7 67.6C36.4333 69.9333 35.5 71.5667 34.9 72.5C34.3667 73.2333 33.9 73.6667 33.5 73.8C33.1 73.9333 32.4333 74 31.5 74H22.6C21.2 74 20.0333 73.7667 19.1 73.3C18.2333 72.7667 17.5 72.1 16.9 71.3C16.3 70.5 15.8 69.6 15.4 68.6C15 67.5333 14.6333 66.4333 14.3 65.3C12.3667 58.6333 10.6667 52.9333 9.2 48.2C7.8 43.4 6.6 39.4 5.6 36.2C4.6 33 3.8 30.4667 3.2 28.6C2.6 26.6667 2.13333 25.2 1.8 24.2C1.46667 23.1333 1.23333 22.4333 1.1 22.1C0.966667 21.7 0.9 21.4333 0.9 21.3C0.966667 20.8333 1.3 20.3333 1.9 19.8C2.5 19.2667 3.26667 19 4.2 19C7.26667 19 9.86667 19.1333 12 19.4C14.2 19.6 16 20 17.4 20.6C18.8667 21.2 19.9667 22.0333 20.7 23.1C21.5 24.1667 22.0667 25.5667 22.4 27.3C22.4667 27.7667 22.6 28.7 22.8 30.1C23 31.5 23.2 33.2 23.4 35.2C23.6667 37.1333 23.9667 39.3 24.3 41.7C24.6333 44.0333 24.9333 46.4 25.2 48.8C25.5333 51.1333 25.8333 53.4 26.1 55.6C26.4333 57.8 26.7333 59.7 27 61.3ZM93.257 61.6C93.457 59.4 93.657 57.1 93.857 54.7C94.1237 52.3 94.3237 50 94.457 47.8C94.657 45.6 94.8237 43.6333 94.957 41.9C95.0904 40.1667 95.157 38.9 95.157 38.1C95.157 36.3667 94.7237 34.8333 93.857 33.5C93.057 32.1 91.457 31.4 89.057 31.4C85.857 31.4 83.257 32.9 81.257 35.9C79.3237 38.9 78.1904 42.9 77.857 47.9C77.7237 49.3 77.557 51.2667 77.357 53.8C77.157 56.2667 76.957 58.8 76.757 61.4C76.557 63.9333 76.357 66.2333 76.157 68.3C76.0237 70.3 75.957 71.5333 75.957 72C75.957 72.8 75.7904 73.3333 75.457 73.6C75.1904 73.8667 74.6237 74 73.757 74H70.157C68.0904 74 66.3904 73.8 65.057 73.4C63.7904 72.9333 62.757 72.3 61.957 71.5C61.2237 70.7 60.6904 69.7333 60.357 68.6C60.0904 67.4 59.957 66.0333 59.957 64.5C59.957 63.0333 60.057 61 60.257 58.4C60.5237 55.7333 60.857 52.1 61.257 47.5C61.657 42.8333 62.1237 36.9 62.657 29.7C63.1904 22.5 63.757 13.5667 64.357 2.9C64.4237 1.43333 64.5904 0.566662 64.857 0.299995C65.057 0.0999978 65.5904 -9.53674e-07 66.457 -9.53674e-07H70.357C72.357 -9.53674e-07 74.0237 0.233331 75.357 0.699996C76.6904 1.16666 77.757 1.8 78.557 2.6C79.357 3.4 79.9237 4.33333 80.257 5.4C80.5904 6.4 80.757 7.46666 80.757 8.6C80.757 9.8 80.6237 12.0333 80.357 15.3C80.157 18.5667 79.8904 22.4 79.557 26.8C81.557 23.4667 83.757 21.1667 86.157 19.9C88.6237 18.6333 91.7237 18 95.457 18C98.257 18 100.69 18.3 102.757 18.9C104.824 19.5 106.524 20.5333 107.857 22C109.257 23.4 110.29 25.2667 110.957 27.6C111.624 29.8667 111.957 32.7 111.957 36.1C111.957 37.1667 111.857 39 111.657 41.6C111.457 44.2 111.19 47.1667 110.857 50.5C110.59 53.8333 110.29 57.3333 109.957 61C109.69 64.6 109.457 67.9 109.257 70.9C109.19 71.6333 109.124 72.2 109.057 72.6C108.99 73 108.857 73.3 108.657 73.5C108.524 73.7 108.29 73.8333 107.957 73.9C107.624 73.9667 107.157 74 106.557 74H103.357C101.224 74 99.4904 73.8 98.157 73.4C96.8237 73 95.7904 72.4333 95.057 71.7C94.3237 70.9667 93.7904 70.0667 93.457 69C93.1904 67.8667 93.057 66.6 93.057 65.2C93.057 64.5333 93.057 63.9 93.057 63.3C93.1237 62.7 93.1904 62.1333 93.257 61.6ZM143.997 75C141.064 75 138.13 74.6333 135.197 73.9C132.33 73.1667 129.73 71.9 127.397 70.1C125.13 68.3 123.264 65.9 121.797 62.9C120.33 59.9 119.597 56.1333 119.597 51.6C119.597 49.9333 119.73 47.9333 119.997 45.6C120.264 43.2667 120.764 40.8667 121.497 38.4C122.297 35.9333 123.364 33.5 124.697 31.1C126.097 28.6333 127.897 26.4333 130.097 24.5C132.297 22.5667 134.964 21 138.097 19.8C141.23 18.6 144.964 18 149.297 18C152.764 18 155.697 18.4 158.097 19.2C160.497 20 162.43 21.1 163.897 22.5C165.364 23.8333 166.43 25.4 167.097 27.2C167.764 29 168.097 30.9333 168.097 33C168.097 36.0667 167.464 38.6667 166.197 40.8C164.997 42.9333 163.397 44.7333 161.397 46.2C159.464 47.6 157.297 48.7 154.897 49.5C152.497 50.3 150.13 50.9333 147.797 51.4C145.464 51.8 143.297 52.0667 141.297 52.2C139.364 52.2667 137.864 52.3 136.797 52.3C136.797 53.5667 136.964 54.8333 137.297 56.1C137.697 57.3 138.264 58.3667 138.997 59.3C139.73 60.2333 140.697 61 141.897 61.6C143.097 62.2 144.564 62.5 146.297 62.5C148.03 62.5 149.364 62.2333 150.297 61.7C151.297 61.1 152.097 60.4667 152.697 59.8C153.297 59.0667 153.797 58.4333 154.197 57.9C154.664 57.3 155.264 57 155.997 57C156.33 57 156.897 57.1 157.697 57.3C158.564 57.4333 159.43 57.7667 160.297 58.3C161.164 58.8333 161.93 59.5667 162.597 60.5C163.264 61.4333 163.597 62.6333 163.597 64.1C163.597 66.0333 162.997 67.7 161.797 69.1C160.597 70.5 159.03 71.6333 157.097 72.5C155.23 73.3667 153.13 74 150.797 74.4C148.464 74.8 146.197 75 143.997 75ZM145.897 31.3C144.43 31.3 143.164 31.7333 142.097 32.6C141.097 33.4 140.23 34.4333 139.497 35.7C138.83 36.9667 138.297 38.3667 137.897 39.9C137.564 41.4333 137.297 42.9 137.097 44.3C141.23 44.2333 144.564 43.5333 147.097 42.2C149.697 40.8667 150.997 38.9667 150.997 36.5C150.997 35.1667 150.564 33.9667 149.697 32.9C148.897 31.8333 147.63 31.3 145.897 31.3ZM208.22 65.2C208.22 63.7333 208.32 61.8333 208.52 59.5C208.786 57.1 209.02 54.6 209.22 52C209.486 49.3333 209.72 46.7667 209.92 44.3C210.186 41.8333 210.32 39.7667 210.32 38.1C210.32 36.3667 209.886 34.8333 209.02 33.5C208.22 32.1 206.62 31.4 204.22 31.4C201.886 31.4 199.953 31.9667 198.42 33.1C196.886 34.2333 195.586 36.3 194.52 39.3C193.52 42.3 192.686 46.4333 192.02 51.7C191.353 56.9667 190.72 63.7333 190.12 72C190.053 72.8 189.886 73.3333 189.62 73.6C189.353 73.8667 188.786 74 187.92 74H184.32C182.253 74 180.553 73.8 179.22 73.4C177.953 72.9333 176.92 72.3 176.12 71.5C175.386 70.7 174.853 69.7333 174.52 68.6C174.253 67.4 174.12 66.0333 174.12 64.5C174.12 63.5 174.153 62.1 174.22 60.3C174.353 58.4333 174.553 55.9 174.82 52.7C175.086 49.4333 175.386 45.3333 175.72 40.4C176.12 35.4 176.586 29.2333 177.12 21.9C177.186 20.4333 177.353 19.5667 177.62 19.3C177.82 19.1 178.353 19 179.22 19H183.12C185.12 19 186.753 19.2333 188.02 19.7C189.353 20.1667 190.42 20.8 191.22 21.6C192.02 22.3333 192.586 23.2333 192.92 24.3C193.253 25.3 193.453 26.3333 193.52 27.4C195.586 23.8667 197.953 21.4333 200.62 20.1C203.286 18.7 206.62 18 210.62 18C213.42 18 215.853 18.3 217.92 18.9C219.986 19.5 221.686 20.5333 223.02 22C224.42 23.4 225.453 25.2667 226.12 27.6C226.786 29.8667 227.12 32.7 227.12 36.1C227.12 37.1667 227.053 38.7 226.92 40.7C226.786 42.7 226.62 44.9 226.42 47.3C226.22 49.6333 225.986 52.1 225.72 54.7C225.52 57.2333 225.32 59.6 225.12 61.8C224.92 64 224.753 65.9333 224.62 67.6C224.486 69.2667 224.42 70.3667 224.42 70.9C224.42 72.3667 224.253 73.2667 223.92 73.6C223.586 73.8667 222.853 74 221.72 74H218.52C216.386 74 214.653 73.8 213.32 73.4C211.986 73 210.953 72.4333 210.22 71.7C209.486 70.9667 208.953 70.0667 208.62 69C208.353 67.8667 208.22 66.6 208.22 65.2ZM257.534 32.5C257.334 35.0333 257.1 37.5333 256.834 40C256.634 42.4667 256.434 44.8 256.234 47C256.034 49.2 255.867 51.1667 255.734 52.9C255.667 54.6333 255.634 55.9667 255.634 56.9C255.634 58.6333 255.834 59.8 256.234 60.4C256.634 60.9333 257.3 61.2 258.234 61.2C258.967 61.2 259.6 61.0667 260.134 60.8C260.667 60.5333 261.167 60.2333 261.634 59.9C262.1 59.5667 262.5 59.2667 262.834 59C263.234 58.7333 263.667 58.6 264.134 58.6C264.6 58.6 265.034 58.8667 265.434 59.4C265.834 59.9333 266.034 61.1667 266.034 63.1C266.034 66.7667 265.034 69.6667 263.034 71.8C261.034 73.9333 257.6 75 252.734 75C247.934 75 244.367 73.9 242.034 71.7C239.767 69.4333 238.634 66 238.634 61.4C238.634 60.4 238.667 59.2333 238.734 57.9C238.867 56.5 239.034 54.7 239.234 52.5C239.434 50.3 239.667 47.6 239.934 44.4C240.267 41.2 240.6 37.2333 240.934 32.5H235.634C235.1 32.5 234.767 32.4 234.634 32.2C234.567 31.9333 234.534 31.5667 234.534 31.1L234.834 26C234.9 25.1333 235 24.3 235.134 23.5C235.334 22.6333 235.667 21.8667 236.134 21.2C236.667 20.5333 237.4 20 238.334 19.6C239.267 19.2 240.5 19 242.034 19C242.5 17.8 243.034 16.3667 243.634 14.7C244.234 13.0333 244.834 11.4333 245.434 9.9C246.034 8.3 246.6 6.96666 247.134 5.89999C247.734 4.83333 248.267 4.3 248.734 4.3H251.634C254.434 4.3 256.367 5.16666 257.434 6.9C258.5 8.63333 259.034 10.7 259.034 13.1C259.034 14.4333 258.934 16.4 258.734 19H269.234C270.3 19 270.834 19.4667 270.834 20.4L270.434 25.8C270.3 27.8 269.734 29.4333 268.734 30.7C267.8 31.9 265.834 32.5 262.834 32.5H257.534Z" fill="#8161D5"/>
</svg>
